# xmcd CD database file
#
# Track frame offsets:
#	150
#	21390
#	41729
#	60613
#	80197
#	99586
#	114904
#	134113
#	154207
#	173692
#	191476
#	211300
#	232005
#	252561
#
# Disc length: 3647 seconds
#
# Revision: 0
# Processed by: cddbd v1.5.1PL2 Copyright (c) Steve Scherf et al.
# Submitted via: CDex 1.51
#
DISCID=cc0e3d0e
DTITLE=ダイソー - Acoustic Guitar Selection
DYEAR=1900
DGENRE=healing
TTITLE0=想いのとどく日
TTITLE1=ラ・パロマ
TTITLE2=もっと愛して〜ダッタン人の踊りから
TTITLE3=禁じられた遊び
TTITLE4=黒い瞳を
TTITLE5=アデリータ
TTITLE6=聖者の行進
TTITLE7=ラ・バンバ
TTITLE8=花祭り
TTITLE9=ティコ・ティコ
TTITLE10=グァンタナメラ
TTITLE11=シエリト・リンド
TTITLE12=サンバ・パ・ティ〜君に捧げるサンバ
TTITLE13=ウイリアム・テル序曲
EXTD=
EXTT0=
EXTT1=
EXTT2=
EXTT3=
EXTT4=
EXTT5=
EXTT6=
EXTT7=
EXTT8=
EXTT9=
EXTT10=
EXTT11=
EXTT12=
EXTT13=
PLAYORDER=
